<svg xmlns="http://www.w3.org/2000/svg" viewBox="0 0 128 128">
  <defs>
    <linearGradient id="g" x1="0" y1="0" x2="0" y2="1">
      <stop offset="0" stop-color="#3be7ff"/>
      <stop offset="1" stop-color="#22d3ee"/>
    </linearGradient>
  </defs>
  <circle cx="64" cy="64" r="62" fill="#0b1227" stroke="url(#g)" stroke-width="4"/>
  <path d="M64 28c-10 0-17 6-21 15-2 4-5 7-9 10 5 2 9 5 11 9 2 4 2 8 1 12 5-2 10-3 18-3s13 1 18 3c-1-4-1-8 1-12 2-4 6-7 11-9-4-3-7-6-9-10-4-9-11-15-21-15z" fill="#101833"/>
  <path d="M44 78c0 10 9 18 20 18s20-8 20-18c-6-3-13-5-20-5s-14 2-20 5z" fill="#0f1530"/>
  <ellipse cx="50" cy="64" rx="6" ry="8" fill="#e7ecfb"/>
  <ellipse cx="78" cy="64" rx="6" ry="8" fill="#e7ecfb"/>
  <circle cx="50" cy="64" r="3" fill="#0a0f1e"/>
  <circle cx="78" cy="64" r="3" fill="#0a0f1e"/>
  <path d="M64 74c-4 0-7 2-7 5 3 2 5 3 7 3s4-1 7-3c0-3-3-5-7-5z" fill="#151a2e"/>
</svg>
